<svg xmlns="http://www.w3.org/2000/svg" viewBox="0 0 600 600"><circle cx="300" cy="300" r="285" fill="#f8edda" stroke="#d9b88e" stroke-width="12"/><path d="M190 170c0-22 18-40 40-40h155c22 0 40 18 40 40v105c0 45-36 81-81 81H271c-45 0-81-36-81-81z" fill="#f5dfc8" stroke="#c79d7b" stroke-width="8"/><path d="M425 190h20c48 0 48 84 0 84h-20" fill="none" stroke="#c79d7b" stroke-width="18"/><path d="M286 230c22-34 72-12 72 23 0 34-36 56-72 82-36-26-72-48-72-82 0-35 50-57 72-23z" fill="#d92722"/><g fill="#d99b16"><circle cx="250" cy="180" r="13"/><circle cx="330" cy="180" r="13"/><circle cx="380" cy="235" r="12"/></g><g fill="#29699a"><circle cx="235" cy="315" r="11"/><circle cx="365" cy="315" r="11"/></g><path d="M420 315l92-155" stroke="#934a23" stroke-width="18" stroke-linecap="round"/><path d="M512 160l25-42 18 12-18 44z" fill="#29699a"/><text x="300" y="435" text-anchor="middle" font-family="Arial Black,Arial,sans-serif" font-size="63" font-weight="900" letter-spacing="2"><tspan fill="#d92722">F</tspan><tspan fill="#d98418">A</tspan><tspan fill="#d7a713">R</tspan><tspan fill="#3f8a55">B</tspan><tspan fill="#29699a">S</tspan><tspan fill="#7849a3">T</tspan><tspan fill="#d64d8a">Ü</tspan><tspan fill="#d92722">B</tspan><tspan fill="#d98418">E</tspan><tspan fill="#d7a713">R</tspan><tspan fill="#3f8a55">L</tspan></text><path d="M150 466h300" stroke="#d98418" stroke-width="10" stroke-linecap="round"/><text x="300" y="515" text-anchor="middle" font-family="Georgia,serif" font-size="29" font-style="italic" fill="#163e69">Keramik zum</text><text x="300" y="550" text-anchor="middle" font-family="Georgia,serif" font-size="29" font-style="italic" fill="#163e69">Selbstbemalen</text></svg>